Patient4_TMGait_0pt4_02_right_08_EMG.mot
version=1
nRows=30
nColumns=33
inDegrees=no
endheader
time	1LAddLong	2LGlutMax	3LGlutMed	4LIliopsoas	5LSemiMemb	6LBicFemLong	7LRecFem	8LVastMed	9LVastLat	10LGasMed	11LTibAnt	12lTibPost	13LPeroneusLong	14LSol	15LExtDigLong	16LFlexDigLong	17RAddLong	18RGlutMax	19RGlutMed	20RIliopsoas	21RSemiMemb	22RBicFemLong	23RRecFem	24RVastMed	25RVastLat	26RGasMed	27RTibAnt	28RTibPost	29RPeroneusLong	30RSol	31RExtDigLong	32RFlexDigLong
11.045	-0.00412	0.003967	0.014954	0.013885	0.000763	0.19028	-0.11154	0.013123	0.058746	0.006866	-0.000305	-0.007172	0.005646	0.010681	0.08194	0.001526	-0.020447	-0.12146	0.020752	-0.036316	0.1918	0.159	-0.22903	0.10681	0.026245	-0.027161	-0.020752	-0.005798	0.064697	-0.023804	-0.002136	-0.000916
11.046	0.003967	-0.016937	-0.006866	0.003815	-0.011749	0.14374	-0.1207	0.021057	0.15533	0.012054	0.019836	0.006104	0.016632	0.019836	0.023041	0.002747	-0.042725	-0.13138	0.020752	0.12192	0.21255	0.059662	-0.22705	0.13504	0.007477	-0.017395	0.060425	-0.011902	-0.1471	-0.066681	-0.006409	-0.008392
11.047	-0.01236	0.025024	0.017853	-0.006714	-0.038605	0.15671	-0.14389	0.032349	0.24307	-0.000763	0.026398	0.005035	0.024414	0.006866	0.083466	0.008087	0.00061	-0.13992	-0.12085	0.13184	0.27512	0.031281	-0.17197	0.020294	0.00885	0.003662	0.11597	-0.009003	-0.47897	-0.19486	0.00061	-0.010681
11.048	-0.022125	-0.013123	0.035553	-0.010681	-0.08728	0.32028	-0.16693	0.049591	0.26398	0.015259	0.034485	0.002136	-0.021515	0.009003	0.073242	-0.003204	0.035095	-0.11963	-0.1355	0.058594	0.1918	0.014801	-0.22064	0.00412	-0.000153	0.029907	0.13748	-0.008392	-0.43304	-0.23377	-0.002289	-0.010223
11.049	-0.047302	0.009155	0.015411	0.013733	-0.10696	0.26459	-0.15762	0.04776	0.26367	0.019073	0.034332	0.004578	-0.015869	0.003662	0.061188	0.005646	0.027008	-0.11551	-0.097198	-0.048676	0.1297	0.074005	-0.23285	-0.045624	-0.014038	0.026855	0.064087	0.004272	-0.64346	-0.36972	-0.002747	-0.003967
11.05	-0.046844	0.015259	-0.02655	0.005035	-0.13886	0.20096	-0.16495	0.031433	0.34531	0.026855	0.015869	-0.000153	-0.010376	-0.002747	0.03418	0.002747	0.033112	-0.057068	-0.18417	-0.078735	0.085449	0.068207	-0.19684	-0.044708	-0.015564	-0.005188	-0.017853	0.0177	-0.28686	-0.27603	-0.00412	0.00061
11.051	-0.061646	-0.035858	-0.015259	0.009003	-0.086823	0.020905	-0.20386	0.020142	0.35172	0.030212	0.010529	0	-0.026855	-0.024567	-0.005035	-0.002594	0.032501	-0.083313	-0.11658	-0.070496	0.057373	0.024261	-0.17075	-0.053864	-0.005035	-0.1181	0.023193	-0.011597	-0.23941	0.27069	-0.003815	0.000458
11.052	-0.049896	0.063171	0.02533	-0.003815	0.037231	-0.22507	-0.15427	-0.003815	0.10223	0.022278	0.011139	0.005035	0.011749	-0.066986	-0.013123	-0.000458	0.023804	-0.008545	0.1059	0.012665	0.003052	0.041656	-0.21927	-0.045471	-0.001221	-0.098267	0.01709	-0.37766	-0.17883	0.81085	0.000916	-0.000305
11.053	-0.028992	0.088654	0.053253	0.002289	0.022888	-0.23636	0.013733	-0.002441	-0.27618	0.014038	0.009613	0.002747	0.071716	-0.020752	-0.016785	-0.002747	-0.010681	-0.062866	-0.05249	0.019836	0.024567	0.080261	-0.24811	-0.016022	0.001068	-0.028687	-0.03952	-0.20325	0.29282	0.91385	0.001526	-0.004578
11.054	-0.002136	0.041656	0.076141	-0.010986	-0.009308	-0.11581	0.036316	-0.015869	-0.4425	0.026245	0.00824	0.003815	0.053253	-0.027161	0.010681	-0.002594	-0.025482	-0.09079	-0.02594	0.059509	0.15579	0.04837	-0.2562	0.014801	0.001984	0.014191	-0.032501	0.12009	0.53268	0.6398	-0.001373	-0.013123
11.055	-0.007019	0.007629	0.053101	-0.005035	0.02243	-0.1384	0.02121	-0.010529	-0.29953	0.027924	0.009155	-0.004272	0.037079	-0.015259	0.014038	0.004425	-0.048218	-0.078735	0.010376	0.034027	0.29114	0.11429	-0.21103	0.052032	0.01358	0.043945	0.031128	0.33936	0.47974	0.55008	-0.004578	-0.024261
11.056	-0.00885	0.10757	0.083923	0	0.001068	-0.23056	0.064697	-0.002594	-0.060425	0.019836	0.00824	0.002747	-0.05661	0.01709	0.011749	0.005188	-0.019989	-0.039063	-0.18082	0.008545	0.2211	0.18417	-0.2478	0.044403	0.011749	0.035858	0.056	0.19806	0.27054	0.26123	-0.005493	-0.023041
11.057	0.017242	0.12451	0.09079	0.006866	-0.027466	-0.41199	0.10941	0.024872	0.11444	0.034485	0.004425	0.007935	-0.17517	0.001526	0.010071	0.003967	0.001373	-0.005341	-0.1767	-0.018616	0.13367	0.074615	-0.23041	0.029602	-0.007324	0.037842	0.014648	0.025787	0.27496	0.061951	-0.003357	-0.020294
11.058	0.027161	0.068207	0.14923	0.007782	0.072479	-0.40207	0.12802	0.027008	0.13947	0.016022	0.045319	0.007477	-0.12695	0.023499	0.016174	0.004883	0.008087	0.027008	0.033569	-0.016174	0.099487	-0.053101	-0.25223	0.006104	0.003967	0.046387	-0.012512	0.032196	0.29862	-0.21729	-0.001831	-0.019226
11.059	0.019379	-0.07782	0.15243	0.000305	0.072632	-0.0737	0.084991	0.022583	0.006714	0.008087	0.11566	0.005493	-0.048981	0.031128	0.013733	0.005646	0.001984	-0.007935	0.11383	0.004578	0.068054	-0.028687	-0.25604	0.006104	-0.000916	0.045166	0.00351	0.026398	0.22522	-0.40771	-0.001221	-0.025177
11.06	0.011444	-0.015564	0.021515	0.005188	0.036469	0.16403	-0.043488	0.034027	-0.14252	0.009766	0.17075	0.001984	0.02655	0.029907	0.01358	0.005646	-0.003357	-0.038605	-0.011597	-0.00885	0.024414	-0.055084	-0.24719	0.007477	-0.001068	0.028687	0.027924	-0.005493	0.072937	-0.27679	-0.003357	-0.023651
11.061	0.00061	-0.062256	-0.026855	0.010529	-0.007782	0.23254	-0.10208	0.039215	-0.31601	0.00885	0.12421	0.010681	0.039978	0.041809	-0.004425	0.007935	-0.012054	-0.025024	0.01297	-0.018616	0.013123	-0.053253	-0.24536	0.020447	-0.001526	0.009613	0.038757	-0.001831	-0.000916	-0.13657	-0.002594	-0.021362
11.062	0.005188	-0.053558	-0.037689	0.003815	0.029755	0.22232	-0.10269	0.037537	-0.22537	0.024719	0.012054	0.012207	-0.032501	0.047302	0.009155	0.002136	-0.002594	-0.03006	0.011292	-0.018921	0.013733	-0.063019	-0.28198	-0.041504	-0.013123	-0.00061	0.041351	-0.006866	-0.00412	-0.1474	-0.001678	-0.021362
11.063	0.010681	-0.034027	0.038757	0.004425	0.10834	0.11978	-0.10986	-0.000763	0.067139	0.037689	-0.068665	0.027008	-0.075073	0.024261	0.028687	-0.00351	0.008698	0.001678	-0.000916	-0.056458	0.049286	-0.093994	-0.24063	-0.063934	-0.010529	-0.002289	0.020599	-0.010071	0.014954	-0.31357	-0.000458	-0.013885
11.064	0.009613	-0.014801	0.028076	0.009003	0.11139	-0.16647	-0.088959	-0.017242	0.28641	0.03479	-0.18616	0.021515	-0.050201	0.036316	-0.026093	0.002899	0.011292	0.014954	-0.019379	-0.085297	0.059052	-0.13931	-0.2446	-0.063171	-0.023346	0.003815	0.024109	-0.016479	0.045929	-0.44403	-0.002594	-0.022125
11.065	-0.003815	-0.003357	-0.076904	-0.007782	0.095367	-0.31265	-0.084229	-0.015259	0.38162	0.017548	-0.12878	0.032654	-0.00885	0.033875	-0.037842	0.002594	0.019073	0.039978	-0.11704	-0.094299	0.054016	-0.17822	-0.27588	-0.036316	-0.020447	0.007935	0.005951	-0.016937	0.030518	-0.28915	-0.001221	-0.011292
11.066	-0.011902	0.01358	-0.18051	0.001526	0.020599	-0.2095	-0.02533	-0.016632	0.38132	0.027008	-0.067749	0.045624	0.021057	0.048828	0.024719	-0.001984	0.016022	0.00885	-0.11292	-0.08194	0.008545	-0.16724	-0.25848	-0.060272	-0.011749	0.015564	0.004578	-0.018005	-0.11826	-0.12238	-0.002899	-0.009308
11.067	-0.019379	-0.033112	-0.21149	0.028992	-0.011749	-0.38162	0.065765	-0.028076	0.20599	0.046844	-0.036774	0.043793	0.003815	0.053253	0.042725	0.011902	0.020447	0.033722	-0.072937	-0.079498	-0.061035	-0.098572	-0.24536	-0.058746	-0.010071	0.014343	0.014496	-0.020294	-0.12711	-0.034027	0.003662	-0.014496
11.068	-0.034637	-0.009003	-0.17792	0.026703	-0.01709	-0.21011	0.12039	-0.050964	-0.005646	0.056458	-0.007935	0.056763	-0.029907	0.074615	-0.00351	0.002289	0.018921	0.063019	-0.041656	-0.016479	-0.079803	-0.044403	-0.27863	-0.009613	0.001373	0.014954	0.034027	-0.023499	0.1297	0.010681	-0.003815	-0.017548
11.069	-0.045929	-0.017395	-0.043335	0.001984	-0.075226	-0.021362	0.20477	-0.021973	-0.052185	0.042725	-0.033112	0.058136	-0.041962	0.085602	0.008545	0.000458	0.016174	0.04303	-0.033112	0.005035	-0.02182	-0.080566	-0.30197	-0.000763	0.020294	0.003357	0.053864	-0.020294	0.81802	-0.026398	-0.00412	-0.027771
11.07	-0.037994	-0.037689	-0.063782	0.016327	-0.012207	0.005035	0.13321	0.00824	0.10712	0.020599	0.031433	0.065613	-0.049438	0.14832	0.040131	0.003204	0.028687	0.019836	-0.073395	0.015259	0.062714	-0.054016	-0.29114	0.017853	0.011292	0.014954	0.05188	-0.007172	0.55084	-0.04364	-0.002289	-0.027771
11.071	-0.029449	0.028534	-0.11978	0.002136	-0.065613	0.058441	0.029602	0.014343	0.1593	-0.025024	0.048676	0.066681	0.032043	0.18753	0.054321	0.003967	0.059814	-0.003662	-0.069733	-0.037079	0.041656	0.02243	-0.31097	0.018311	0.030975	0.017395	-0.015259	-0.010223	-0.30243	-0.096588	0.000305	-0.030365
11.072	-0.018463	0.13825	-0.10223	-0.003052	-0.15015	0.076447	0.033569	0.001831	0.21271	-0.03418	0.046692	0.071716	0.045166	0.19501	0.33875	0.00885	0.056	0.010834	-0.11215	-0.016174	0.0354	0.084991	-0.32883	0.000458	0.034943	0.025635	-0.030518	-0.012665	-0.26093	-0.092773	-0.008698	-0.033569
11.073	-0.016327	0.17883	-0.016937	0.00061	-0.13336	-0.051727	0.040588	0.002136	0.22003	-0.011292	0.11124	0.074615	0.021667	0.17242	-0.047607	0.00351	0.05188	0.023651	-0.08255	0.005035	0.026398	0.071716	-0.3624	0.022278	0.048676	0.01236	0.018921	-0.010529	-0.76797	-0.076294	-0.002747	-0.037231
11.074	-0.003815	0.19028	-0.067596	0.029297	-0.087128	-0.071716	0.02533	-0.011902	0.097351	0.021362	-0.10346	0.073547	-0.046539	0.12436	-0.09903	-0.007629	0.06134	-0.027466	-0.081329	0.038452	0.049744	0.041046	-0.36285	-0.013428	0.040741	0.012665	0.027161	-0.007782	-0.38513	-0.055084	-0.002136	-0.023499
